<svg width="78" height="78" viewBox="0 0 78 78" fill="none" xmlns="http://www.w3.org/2000/svg">
<g filter="url(#filter0_d_555_2172)">
<circle cx="39" cy="35" r="30" fill="#1A87C0"/>
</g>
<g clip-path="url(#clip0_555_2172)">
<path fill-rule="evenodd" clip-rule="evenodd" d="M50.25 31.25H42.75V23.75C42.75 21.6781 41.0709 20 39 20C36.9291 20 35.25 21.6781 35.25 23.75V31.25H27.75C25.6791 31.25 24 32.9281 24 35C24 37.0719 25.6791 38.75 27.75 38.75H35.25V46.25C35.25 48.3219 36.9291 50 39 50C41.0709 50 42.75 48.3219 42.75 46.25V38.75H50.25C52.3209 38.75 54 37.0719 54 35C54 32.9281 52.3209 31.25 50.25 31.25Z" fill="white"/>
</g>
<defs>
<filter id="filter0_d_555_2172" x="0" y="0" width="78" height="78" filterUnits="userSpaceOnUse" color-interpolation-filters="sRGB">
<feFlood flood-opacity="0" result="BackgroundImageFix"/>
<feColorMatrix in="SourceAlpha" type="matrix" values="0 0 0 0 0 0 0 0 0 0 0 0 0 0 0 0 0 0 127 0" result="hardAlpha"/>
<feOffset dy="4"/>
<feGaussianBlur stdDeviation="4.5"/>
<feComposite in2="hardAlpha" operator="out"/>
<feColorMatrix type="matrix" values="0 0 0 0 0.0705882 0 0 0 0 0.533333 0 0 0 0 0.772549 0 0 0 0.46 0"/>
<feBlend mode="normal" in2="BackgroundImageFix" result="effect1_dropShadow_555_2172"/>
<feBlend mode="normal" in="SourceGraphic" in2="effect1_dropShadow_555_2172" result="shape"/>
</filter>
<clipPath id="clip0_555_2172">
<rect width="30" height="30" fill="white" transform="translate(24 20)"/>
</clipPath>
</defs>
</svg>
