<svg width="40" height="40" viewBox="0 0 40 40" fill="none" xmlns="http://www.w3.org/2000/svg">
<path d="M9.375 25C9.375 24.3096 8.81535 23.75 8.125 23.75C7.43465 23.75 6.875 24.3096 6.875 25H9.375ZM32.125 25C32.125 24.3096 31.5653 23.75 30.875 23.75C30.1847 23.75 29.625 24.3096 29.625 25H32.125ZM18.5143 25.8978C18.0898 26.4421 18.1868 27.2276 18.7312 27.6523C19.2755 28.0768 20.061 27.9798 20.4857 27.4355L18.5143 25.8978ZM26.9857 19.1021C27.4102 18.5578 27.3132 17.7723 26.7688 17.3476C26.2245 16.9231 25.439 17.0201 25.0143 17.5645L26.9857 19.1021ZM18.5143 27.4355C18.939 27.9798 19.7245 28.0768 20.2688 27.6523C20.8132 27.2276 20.9102 26.4421 20.4857 25.8978L18.5143 27.4355ZM13.9856 17.5645C13.561 17.0201 12.7755 16.9231 12.2312 17.3476C11.6869 17.7723 11.5898 18.5578 12.0144 19.1021L13.9856 17.5645ZM18.25 26.6666C18.25 27.357 18.8097 27.9166 19.5 27.9166C20.1903 27.9166 20.75 27.357 20.75 26.6666H18.25ZM20.75 8.33331C20.75 7.64296 20.1903 7.08331 19.5 7.08331C18.8097 7.08331 18.25 7.64296 18.25 8.33331H20.75ZM6.875 25V26.6666H9.375V25H6.875ZM6.875 26.6666C6.875 30.0885 9.58762 32.9166 13 32.9166V30.4166C11.0276 30.4166 9.375 28.7678 9.375 26.6666H6.875ZM13 32.9166H26V30.4166H13V32.9166ZM26 32.9166C29.4123 32.9166 32.125 30.0885 32.125 26.6666H29.625C29.625 28.7678 27.9723 30.4166 26 30.4166V32.9166ZM32.125 26.6666V25H29.625V26.6666H32.125ZM20.4857 27.4355L26.9857 19.1021L25.0143 17.5645L18.5143 25.8978L20.4857 27.4355ZM20.4857 25.8978L13.9856 17.5645L12.0144 19.1021L18.5143 27.4355L20.4857 25.8978ZM20.75 26.6666V8.33331H18.25V26.6666H20.75Z" fill="white"/>
</svg>
