<svg width="14" height="14" viewBox="0 0 14 14" fill="none" xmlns="http://www.w3.org/2000/svg">
<path d="M1.75008 1.16667C1.42792 1.16667 1.16675 1.42784 1.16675 1.75V5.83333C1.16675 6.15551 1.42792 6.41667 1.75008 6.41667H5.83341C6.15559 6.41667 6.41675 6.15551 6.41675 5.83333V1.75C6.41675 1.42784 6.15559 1.16667 5.83341 1.16667H1.75008Z" fill="#0077B6"/>
<path d="M8.16659 1.16667C7.84441 1.16667 7.58325 1.42784 7.58325 1.75V5.83333C7.58325 6.15551 7.84441 6.41667 8.16659 6.41667H12.2499C12.5721 6.41667 12.8333 6.15551 12.8333 5.83333V1.75C12.8333 1.42784 12.5721 1.16667 12.2499 1.16667H8.16659Z" fill="#0077B6"/>
<path d="M8.16659 7.58333C7.84441 7.58333 7.58325 7.84449 7.58325 8.16667V12.25C7.58325 12.5722 7.84441 12.8333 8.16659 12.8333H12.2499C12.5721 12.8333 12.8333 12.5722 12.8333 12.25V8.16667C12.8333 7.84449 12.5721 7.58333 12.2499 7.58333H8.16659Z" fill="#0077B6"/>
<path d="M1.75008 7.58333C1.42792 7.58333 1.16675 7.84449 1.16675 8.16667V12.25C1.16675 12.5722 1.42792 12.8333 1.75008 12.8333H5.83341C6.15559 12.8333 6.41675 12.5722 6.41675 12.25V8.16667C6.41675 7.84449 6.15559 7.58333 5.83341 7.58333H1.75008Z" fill="#0077B6"/>
</svg>
