<svg width="35" height="35" viewBox="0 0 35 35" fill="none" xmlns="http://www.w3.org/2000/svg">
<path fill-rule="evenodd" clip-rule="evenodd" d="M23.2714 4.375H11.7287C11.0346 4.37497 10.4192 4.37494 9.90109 4.42225C9.33902 4.47358 8.79076 4.58697 8.24814 4.86948C7.70554 5.15199 7.29824 5.53613 6.93388 5.96715C6.59797 6.36452 6.24515 6.86859 5.84713 7.43724L5.81359 7.48517L4.9427 8.72929L4.89775 8.7935C4.33609 9.59579 3.8445 10.298 3.50739 10.9227C3.14316 11.5977 2.8834 12.3136 2.90795 13.1468C2.93249 13.9799 3.23396 14.6793 3.6373 15.3316C4.01062 15.9355 4.54269 16.6075 5.15063 17.3753L12.9268 27.1978C13.4327 27.837 13.8628 28.3802 14.2459 28.7952C14.6433 29.2259 15.0846 29.6262 15.6466 29.8891C16.8211 30.4383 18.1789 30.4383 19.3534 29.8891C19.9154 29.6262 20.3567 29.2259 20.7541 28.7952C21.1372 28.3802 21.5673 27.837 22.0732 27.1978L29.8493 17.3753C30.4571 16.6075 30.9894 15.9355 31.3626 15.3316C31.766 14.6793 32.0674 13.9799 32.0921 13.1468C32.1166 12.3136 31.8569 11.5977 31.4926 10.9227C31.1555 10.298 30.6639 9.59579 30.1022 8.7935L29.1528 7.43728C28.7548 6.86861 28.4021 6.36452 28.0661 5.96715C27.7018 5.53613 27.2945 5.15199 26.7518 4.86948C26.2092 4.58697 25.661 4.47358 25.0989 4.42225C24.5808 4.37494 23.9655 4.37497 23.2714 4.375ZM14.3384 11.7464C14.7852 11.0763 14.604 10.1709 13.9339 9.7241C13.2638 9.27734 12.3584 9.45842 11.9116 10.1286L11.1824 11.2223C10.3917 12.4084 10.4753 13.9733 11.3879 15.0685L14.1922 18.4336C14.7077 19.0524 15.6274 19.136 16.2461 18.6203C16.8649 18.1048 16.9485 17.1851 16.4328 16.5664L13.6285 13.2013C13.5429 13.0984 13.535 12.9515 13.6092 12.8402L14.3384 11.7464Z" fill="#0C6DA0"/>
</svg>
