<svg width="35" height="35" viewBox="0 0 35 35" fill="none" xmlns="http://www.w3.org/2000/svg">
<path d="M17.5 16.9564C18.9624 16.9564 20.365 16.3755 21.3991 15.3414C22.4332 14.3073 23.0141 12.9047 23.0141 11.4423C23.0141 9.97983 22.4332 8.57729 21.3991 7.54319C20.365 6.50908 18.9624 5.92813 17.5 5.92813C16.0376 5.92813 14.635 6.50908 13.6009 7.54319C12.5668 8.57729 11.9859 9.97983 11.9859 11.4423C11.9859 12.9047 12.5668 14.3073 13.6009 15.3414C14.635 16.3755 16.0376 16.9564 17.5 16.9564ZM17.5 19.3791C10.1686 19.3791 5.46875 23.4249 5.46875 25.3947V29.073H29.5312V25.3947C29.5312 23.0125 25.0819 19.3791 17.5 19.3791Z" fill="#0C6DA0"/>
</svg>
