<svg width="37" height="35" viewBox="0 0 37 35" fill="none" xmlns="http://www.w3.org/2000/svg">
<path fill-rule="evenodd" clip-rule="evenodd" d="M9.56604 5.06631H27.434C29.1514 5.06631 29.7758 5.23065 30.4032 5.53948C31.0307 5.84831 31.524 6.30165 31.8601 6.87823C32.1962 7.45481 32.375 8.02715 32.375 9.60673V20.2459L25.6055 14.5041C25.3599 14.2959 25.068 14.139 24.7501 14.0443C24.4321 13.9497 24.0956 13.9195 23.7637 13.9559C23.4318 13.9922 23.1124 14.0943 22.8276 14.2549C22.5427 14.4156 22.2992 14.6311 22.1137 14.8866L17.2882 21.5379L13.7378 19.4412C13.2644 19.1618 12.6965 19.0505 12.1402 19.1282C11.584 19.2059 11.0777 19.4673 10.7161 19.8634L4.63271 26.5288C4.62764 26.3612 4.62507 26.1936 4.625 26.0259V9.60673C4.625 8.02715 4.80383 7.45481 5.13992 6.87823C5.476 6.30165 5.96933 5.84831 6.59679 5.53948C7.22425 5.23065 7.84708 5.06631 9.56604 5.06631ZM24.1764 17.1505L32.375 24.1021V26.0245C32.375 27.6026 32.1962 28.1764 31.8601 28.753C31.5315 29.3234 31.0239 29.7898 30.4032 30.0917C29.7758 30.4006 29.1529 30.5649 27.434 30.5649H9.56604C7.84708 30.5649 7.22425 30.4006 6.59679 30.0917C6.32562 29.9592 6.07429 29.7949 5.84908 29.603L12.6417 22.1612L16.2584 24.2976C16.7687 24.5989 17.3875 24.7039 17.9812 24.5899C18.575 24.476 19.0963 24.1522 19.4327 23.6884L24.1764 17.1505ZM12.3148 9.31631C10.6036 9.31631 9.25 10.495 9.25 12.1326C9.25 13.7717 10.6051 14.983 12.3148 14.983C14.0615 14.983 15.4167 13.7717 15.4167 12.1326C15.4167 10.495 14.0615 9.31631 12.3148 9.31631Z" fill="#0C6DA0"/>
</svg>
