<svg width="12" height="12" viewBox="0 0 12 12" fill="none" xmlns="http://www.w3.org/2000/svg">
<path d="M6.5 2.75C6.5 3.2939 6.66128 3.82558 6.96346 4.27782C7.26563 4.73005 7.69512 5.08253 8.19762 5.29067C8.70012 5.49881 9.25305 5.55327 9.7865 5.44716C10.3199 5.34105 10.8099 5.07914 11.1945 4.69454C11.5791 4.30995 11.841 3.81995 11.9472 3.2865C12.0533 2.75305 11.9988 2.20012 11.7907 1.69762C11.5825 1.19512 11.2301 0.765633 10.7778 0.46346C10.3256 0.161286 9.7939 1.24479e-06 9.25 1.24479e-06C8.52091 0.000824717 7.82191 0.290821 7.30637 0.806367C6.79082 1.32191 6.50082 2.02091 6.5 2.75ZM2.75 5.5C2.2061 5.5 1.67442 5.33872 1.22218 5.03654C0.769949 4.73437 0.417475 4.30488 0.209333 3.80238C0.00119209 3.29988 -0.0532675 2.74695 0.0528421 2.2135C0.158952 1.68005 0.420863 1.19005 0.805458 0.805457C1.19005 0.420863 1.68006 0.158951 2.2135 0.0528417C2.74695 -0.0532676 3.29988 0.00119154 3.80238 0.209332C4.30488 0.417473 4.73437 0.769948 5.03654 1.22218C5.33872 1.67442 5.5 2.2061 5.5 2.75C5.49918 3.47909 5.20918 4.17809 4.69363 4.69363C4.17809 5.20918 3.47909 5.49918 2.75 5.5ZM9.25 6.5C9.7939 6.5 10.3256 6.66128 10.7778 6.96346C11.2301 7.26563 11.5825 7.69512 11.7907 8.19762C11.9988 8.70012 12.0533 9.25305 11.9472 9.7865C11.841 10.3199 11.5791 10.8099 11.1945 11.1945C10.8099 11.5791 10.3199 11.841 9.7865 11.9472C9.25305 12.0533 8.70012 11.9988 8.19762 11.7907C7.69512 11.5825 7.26563 11.2301 6.96346 10.7778C6.66128 10.3256 6.5 9.7939 6.5 9.25C6.50082 8.52091 6.79082 7.82191 7.30637 7.30637C7.82191 6.79082 8.52091 6.50082 9.25 6.5ZM2.75 6.5C3.2939 6.5 3.82558 6.66128 4.27782 6.96346C4.73005 7.26563 5.08253 7.69512 5.29067 8.19762C5.49881 8.70012 5.55327 9.25305 5.44716 9.7865C5.34105 10.3199 5.07914 10.8099 4.69454 11.1945C4.30995 11.5791 3.81995 11.841 3.2865 11.9472C2.75305 12.0533 2.20012 11.9988 1.69762 11.7907C1.19513 11.5825 0.765635 11.2301 0.463461 10.7778C0.161287 10.3256 1.90735e-06 9.7939 1.90735e-06 9.25C0.000824928 8.52091 0.290821 7.82191 0.806368 7.30637C1.32191 6.79082 2.02091 6.50082 2.75 6.5Z" fill="#0077B6"/>
</svg>
