<svg width="40" height="40" viewBox="0 0 40 40" fill="none" xmlns="http://www.w3.org/2000/svg">
<path fill-rule="evenodd" clip-rule="evenodd" d="M11.6668 4.58333C8.97521 4.58333 6.54125 5.25604 4.7746 6.89649C2.9912 8.55253 2.0835 11.0117 2.0835 14.1667V25.8333C2.0835 28.9883 2.9912 31.4475 4.7746 33.1035C6.54125 34.744 8.97521 35.4167 11.6668 35.4167H28.3335C31.0252 35.4167 33.4592 34.744 35.2257 33.1035C37.0092 31.4475 37.9168 28.9883 37.9168 25.8333V14.1667C37.9168 11.0117 37.0092 8.55253 35.2257 6.89649C33.4592 5.25604 31.0252 4.58333 28.3335 4.58333H11.6668ZM32.0477 13.9372C32.5938 13.5151 32.6945 12.73 32.2723 12.1838C31.8503 11.6375 31.0653 11.5368 30.519 11.9589L21.2738 19.1027C20.5237 19.6825 19.4765 19.6825 18.7262 19.1027L9.48116 11.9589C8.93488 11.5368 8.14986 11.6375 7.72775 12.1838C7.30563 12.73 7.40628 13.5151 7.95256 13.9372L17.1977 21.081C18.8483 22.3563 21.1518 22.3563 22.8025 21.081L32.0477 13.9372Z" fill="#0C6DA0"/>
</svg>
