<svg width="139" height="55" viewBox="0 0 139 55" fill="none" xmlns="http://www.w3.org/2000/svg">
<path d="M67.2358 35.52L67.1758 33.72L75.6558 25H77.3558L71.1758 31.48L70.3358 32.38L67.2358 35.52ZM65.9558 39V25H67.4358V39H65.9558ZM76.0158 39L69.9758 32.04L70.9758 30.96L77.7758 39H76.0158ZM86.1811 39V36.68L86.1211 36.3V32.42C86.1211 31.5267 85.8678 30.84 85.3611 30.36C84.8678 29.88 84.1278 29.64 83.1411 29.64C82.4611 29.64 81.8144 29.7533 81.2011 29.98C80.5878 30.2067 80.0678 30.5067 79.6411 30.88L79.0011 29.82C79.5344 29.3667 80.1744 29.02 80.9211 28.78C81.6678 28.5267 82.4544 28.4 83.2811 28.4C84.6411 28.4 85.6878 28.74 86.4211 29.42C87.1678 30.0867 87.5411 31.1067 87.5411 32.48V39H86.1811ZM82.5611 39.1C81.7744 39.1 81.0878 38.9733 80.5011 38.72C79.9278 38.4533 79.4878 38.0933 79.1811 37.64C78.8744 37.1733 78.7211 36.64 78.7211 36.04C78.7211 35.4933 78.8478 35 79.1011 34.56C79.3678 34.1067 79.7944 33.7467 80.3811 33.48C80.9811 33.2 81.7811 33.06 82.7811 33.06H86.4011V34.12H82.8211C81.8078 34.12 81.1011 34.3 80.7011 34.66C80.3144 35.02 80.1211 35.4667 80.1211 36C80.1211 36.6 80.3544 37.08 80.8211 37.44C81.2878 37.8 81.9411 37.98 82.7811 37.98C83.5811 37.98 84.2678 37.8 84.8411 37.44C85.4278 37.0667 85.8544 36.5333 86.1211 35.84L86.4411 36.82C86.1744 37.5133 85.7078 38.0667 85.0411 38.48C84.3878 38.8933 83.5611 39.1 82.5611 39.1ZM91.398 39V24.16H92.818V39H91.398ZM101.229 39.1C100.136 39.1 99.1757 38.8733 98.3491 38.42C97.5224 37.9533 96.8757 37.32 96.4091 36.52C95.9424 35.7067 95.7091 34.78 95.7091 33.74C95.7091 32.7 95.9291 31.78 96.3691 30.98C96.8224 30.18 97.4357 29.5533 98.2091 29.1C98.9957 28.6333 99.8757 28.4 100.849 28.4C101.836 28.4 102.709 28.6267 103.469 29.08C104.242 29.52 104.849 30.1467 105.289 30.96C105.729 31.76 105.949 32.6867 105.949 33.74C105.949 33.8067 105.942 33.88 105.929 33.96C105.929 34.0267 105.929 34.1 105.929 34.18H96.7891V33.12H105.169L104.609 33.54C104.609 32.78 104.442 32.1067 104.109 31.52C103.789 30.92 103.349 30.4533 102.789 30.12C102.229 29.7867 101.582 29.62 100.849 29.62C100.129 29.62 99.4824 29.7867 98.9091 30.12C98.3357 30.4533 97.8891 30.92 97.5691 31.52C97.2491 32.12 97.0891 32.8067 97.0891 33.58V33.8C97.0891 34.6 97.2624 35.3067 97.6091 35.92C97.9691 36.52 98.4624 36.9933 99.0891 37.34C99.7291 37.6733 100.456 37.84 101.269 37.84C101.909 37.84 102.502 37.7267 103.049 37.5C103.609 37.2733 104.089 36.9267 104.489 36.46L105.289 37.38C104.822 37.94 104.236 38.3667 103.529 38.66C102.836 38.9533 102.069 39.1 101.229 39.1ZM108.839 39V28.5H110.259V39H108.839ZM109.559 26.18C109.266 26.18 109.019 26.08 108.819 25.88C108.619 25.68 108.519 25.44 108.519 25.16C108.519 24.88 108.619 24.6467 108.819 24.46C109.019 24.26 109.266 24.16 109.559 24.16C109.853 24.16 110.099 24.2533 110.299 24.44C110.499 24.6267 110.599 24.86 110.599 25.14C110.599 25.4333 110.499 25.68 110.299 25.88C110.113 26.08 109.866 26.18 109.559 26.18ZM118.39 39.1C117.39 39.1 116.49 38.8733 115.69 38.42C114.904 37.9667 114.284 37.34 113.83 36.54C113.377 35.7267 113.15 34.7933 113.15 33.74C113.15 32.6733 113.377 31.74 113.83 30.94C114.284 30.14 114.904 29.52 115.69 29.08C116.49 28.6267 117.39 28.4 118.39 28.4C119.31 28.4 120.13 28.6067 120.85 29.02C121.584 29.4333 122.164 30.04 122.59 30.84C123.03 31.6267 123.25 32.5933 123.25 33.74C123.25 34.8733 123.037 35.84 122.61 36.64C122.184 37.44 121.604 38.0533 120.87 38.48C120.15 38.8933 119.324 39.1 118.39 39.1ZM118.49 37.84C119.237 37.84 119.904 37.6733 120.49 37.34C121.09 36.9933 121.557 36.5133 121.89 35.9C122.237 35.2733 122.41 34.5533 122.41 33.74C122.41 32.9133 122.237 32.1933 121.89 31.58C121.557 30.9667 121.09 30.4933 120.49 30.16C119.904 29.8133 119.237 29.64 118.49 29.64C117.757 29.64 117.097 29.8133 116.51 30.16C115.924 30.4933 115.457 30.9667 115.11 31.58C114.764 32.1933 114.59 32.9133 114.59 33.74C114.59 34.5533 114.764 35.2733 115.11 35.9C115.457 36.5133 115.924 36.9933 116.51 37.34C117.097 37.6733 117.757 37.84 118.49 37.84ZM122.45 39V35.84L122.59 33.72L122.39 31.6V24.16H123.81V39H122.45ZM132.045 39.1C131.032 39.1 130.118 38.8733 129.305 38.42C128.505 37.9533 127.872 37.32 127.405 36.52C126.938 35.7067 126.705 34.78 126.705 33.74C126.705 32.6867 126.938 31.76 127.405 30.96C127.872 30.16 128.505 29.5333 129.305 29.08C130.105 28.6267 131.018 28.4 132.045 28.4C133.085 28.4 134.005 28.6267 134.805 29.08C135.618 29.5333 136.252 30.16 136.705 30.96C137.172 31.76 137.405 32.6867 137.405 33.74C137.405 34.78 137.172 35.7067 136.705 36.52C136.252 37.32 135.618 37.9533 134.805 38.42C133.992 38.8733 133.072 39.1 132.045 39.1ZM132.045 37.84C132.805 37.84 133.478 37.6733 134.065 37.34C134.652 36.9933 135.112 36.5133 135.445 35.9C135.792 35.2733 135.965 34.5533 135.965 33.74C135.965 32.9133 135.792 32.1933 135.445 31.58C135.112 30.9667 134.652 30.4933 134.065 30.16C133.478 29.8133 132.812 29.64 132.065 29.64C131.318 29.64 130.652 29.8133 130.065 30.16C129.478 30.4933 129.012 30.9667 128.665 31.58C128.318 32.1933 128.145 32.9133 128.145 33.74C128.145 34.5533 128.318 35.2733 128.665 35.9C129.012 36.5133 129.478 36.9933 130.065 37.34C130.652 37.6733 131.312 37.84 132.045 37.84Z" fill="#1B87C1"/>
<g clip-path="url(#clip0_356_2351)">
<path d="M45.5167 10.5384H17.3816C15.7596 10.5384 14.2042 11.178 13.0573 12.3164C11.9104 13.4549 11.2661 14.999 11.2661 16.609V44.5377C11.2661 46.1478 11.9104 47.6918 13.0573 48.8303C14.2042 49.9688 15.7596 50.6083 17.3816 50.6083H45.5167C46.3197 50.6083 47.115 50.4513 47.8569 50.1462C48.5989 49.8412 49.2731 49.394 49.8409 48.8303C50.4088 48.2666 50.8593 47.5974 51.1666 46.8609C51.4739 46.1243 51.6321 45.3349 51.6321 44.5377V16.609C51.6321 15.8118 51.4739 15.0224 51.1666 14.2859C50.8593 13.5494 50.4088 12.8801 49.8409 12.3164C49.2731 11.7527 48.5989 11.3056 47.8569 11.0005C47.115 10.6954 46.3197 10.5384 45.5167 10.5384ZM46.6792 42.7747C46.6792 43.5483 46.3696 44.2903 45.8185 44.8374C45.2674 45.3844 44.5199 45.6917 43.7405 45.6917H19.1577C18.379 45.6907 17.6326 45.3829 17.0823 44.8359C16.5321 44.289 16.2231 43.5476 16.2231 42.7747V18.3761C16.2231 17.6031 16.5321 16.8617 17.0823 16.3148C17.6326 15.7678 18.379 15.46 19.1577 15.459H43.7405C44.5199 15.459 45.2674 15.7663 45.8185 16.3134C46.3696 16.8604 46.6792 17.6024 46.6792 18.3761V42.7747Z" fill="#9ECCE4"/>
<path d="M50.4931 23.1242L58.8847 14.7941C60.3744 13.3153 60.3744 10.9178 58.8847 9.43901L50.4931 1.10889C49.0034 -0.369868 46.5881 -0.369869 45.0984 1.10889L36.7068 9.43901C35.2171 10.9178 35.2171 13.3153 36.7068 14.7941L45.0984 23.1242C46.5881 24.603 49.0034 24.603 50.4931 23.1242Z" fill="#1B87C1"/>
<path d="M4.46714 33.47L0.267361 44.9241C-0.569845 47.2075 0.616152 49.7322 2.91636 50.5633L14.4552 54.7322C16.7554 55.5633 19.2987 54.386 20.1359 52.1027L24.3357 40.6485C25.1729 38.3652 23.9869 35.8404 21.6867 35.0094L10.1479 30.8404C7.84772 30.0093 5.30435 31.1866 4.46714 33.47Z" fill="#1B87C1"/>
<path d="M28.9748 54.8998C34.0979 54.8998 38.2509 50.7773 38.2509 45.6918C38.2509 40.6063 34.0979 36.4837 28.9748 36.4837C23.8518 36.4837 19.6987 40.6063 19.6987 45.6918C19.6987 50.7773 23.8518 54.8998 28.9748 54.8998Z" fill="#0E6EA1"/>
</g>
<defs>
<clipPath id="clip0_356_2351">
<rect width="60" height="55" fill="white"/>
</clipPath>
</defs>
</svg>
