<svg width="110" height="110" viewBox="0 0 110 110" fill="none" xmlns="http://www.w3.org/2000/svg">
<path d="M55.0001 102.333C81.1413 102.333 102.333 81.1413 102.333 55C102.333 28.8585 81.1413 7.66667 55.0001 7.66667C28.8586 7.66667 7.66675 28.8585 7.66675 55C7.66675 81.1413 28.8586 102.333 55.0001 102.333Z" fill="#A2CFE6" stroke="#0C6DA0" stroke-width="3"/>
<path d="M38.4884 71.2864C39.6189 69.7611 41.7718 69.4412 43.2969 70.5719C46.6354 73.046 50.6646 74.4792 55 74.4792C59.3353 74.4792 63.3646 73.046 66.7031 70.5719C68.2284 69.4412 70.3812 69.7611 71.5114 71.2864C72.6421 72.8118 72.3222 74.9645 70.7969 76.0948C66.3401 79.3985 60.8896 81.3542 55 81.3542C49.1104 81.3542 43.6599 79.3985 39.203 76.0948C37.6778 74.9645 37.3579 72.8118 38.4884 71.2864Z" fill="#0C6DA0"/>
<path d="M68.7501 55C71.2815 55 73.3334 51.9218 73.3334 48.125C73.3334 44.328 71.2815 41.25 68.7501 41.25C66.2187 41.25 64.1667 44.328 64.1667 48.125C64.1667 51.9218 66.2187 55 68.7501 55Z" fill="#0C6DA0"/>
<path d="M41.2501 55C43.7814 55 45.8334 51.9218 45.8334 48.125C45.8334 44.328 43.7814 41.25 41.2501 41.25C38.7188 41.25 36.6667 44.328 36.6667 48.125C36.6667 51.9218 38.7188 55 41.2501 55Z" fill="#0C6DA0"/>
</svg>
