<svg width="30" height="30" viewBox="0 0 30 30" fill="none" xmlns="http://www.w3.org/2000/svg">
<g clip-path="url(#clip0_474_1242)">
<path d="M8.95094 13.7155C10.5567 11.8243 12.9519 10.625 15.625 10.625C20.4575 10.625 24.375 14.5425 24.375 19.375C24.375 20.4105 25.2144 21.25 26.25 21.25C27.2855 21.25 28.125 20.4105 28.125 19.375C28.125 12.4714 22.5285 6.875 15.625 6.875C11.9451 6.875 8.63858 8.46451 6.35194 10.9932L5.91909 8.53835C5.73928 7.51855 4.76679 6.83761 3.74699 7.01742C2.72719 7.19725 2.04625 8.16973 2.22606 9.18954L3.52843 16.5756C3.61478 17.0654 3.89214 17.5006 4.29949 17.7859C4.80354 18.1389 5.46693 18.217 6.0316 18.0381L13.0866 16.7941C14.1064 16.6144 14.7874 15.6419 14.6075 14.622C14.4277 13.6023 13.4552 12.9212 12.4354 13.1011L8.95094 13.7155Z" fill="#0C6DA0"/>
</g>
<defs>
<clipPath id="clip0_474_1242">
<rect width="30" height="30" fill="white"/>
</clipPath>
</defs>
</svg>
