<svg width="30" height="30" viewBox="0 0 30 30" fill="none" xmlns="http://www.w3.org/2000/svg">
<path d="M7.19375 25.3538L5 10H25L22.8063 25.3538C22.7211 25.9495 22.4239 26.4945 21.9693 26.8888C21.5146 27.283 20.933 27.5 20.3312 27.5H9.66875C9.06697 27.5 8.48537 27.283 8.03072 26.8888C7.57608 26.4945 7.2789 25.9495 7.19375 25.3538ZM26.25 5H20V3.75C20 3.41848 19.8683 3.10054 19.6339 2.86612C19.3995 2.6317 19.0815 2.5 18.75 2.5H11.25C10.9185 2.5 10.6005 2.6317 10.3661 2.86612C10.1317 3.10054 10 3.41848 10 3.75V5H3.75C3.41848 5 3.10054 5.1317 2.86612 5.36612C2.6317 5.60054 2.5 5.91848 2.5 6.25C2.5 6.58152 2.6317 6.89946 2.86612 7.13388C3.10054 7.3683 3.41848 7.5 3.75 7.5H26.25C26.5815 7.5 26.8995 7.3683 27.1339 7.13388C27.3683 6.89946 27.5 6.58152 27.5 6.25C27.5 5.91848 27.3683 5.60054 27.1339 5.36612C26.8995 5.1317 26.5815 5 26.25 5Z" fill="#0C6DA0"/>
</svg>
