<svg width="20" height="20" viewBox="0 0 20 20" fill="none" xmlns="http://www.w3.org/2000/svg">
<path d="M19.0103 0.489973C19.1657 0.645119 19.2889 0.829361 19.373 1.03216C19.457 1.23497 19.5003 1.45235 19.5003 1.67189C19.5003 1.89143 19.457 2.10881 19.373 2.31162C19.2889 2.51442 19.1657 2.69866 19.0103 2.85381L10.738 11.1261L7.19225 12.3081L8.37417 8.76231L16.6465 0.489973C16.8016 0.334645 16.9859 0.211421 17.1887 0.127347C17.3915 0.0432738 17.6089 0 17.8284 0C18.048 0 18.2653 0.0432738 18.4681 0.127347C18.6709 0.211421 18.8552 0.334645 19.0103 0.489973ZM1.08333 19.5003H17.3333C17.6207 19.5003 17.8962 19.3862 18.0994 19.183C18.3025 18.9798 18.4167 18.7043 18.4167 18.417V9.75031C18.4167 9.46299 18.3025 9.18744 18.0994 8.98427C17.8962 8.78111 17.6207 8.66697 17.3333 8.66697C17.046 8.66697 16.7705 8.78111 16.5673 8.98427C16.3641 9.18744 16.25 9.46299 16.25 9.75031V17.3336H2.16667V3.25031H9.75C10.0373 3.25031 10.3129 3.13617 10.516 2.93301C10.7192 2.72984 10.8333 2.45429 10.8333 2.16697C10.8333 1.87966 10.7192 1.60411 10.516 1.40094C10.3129 1.19778 10.0373 1.08364 9.75 1.08364H1.08333C0.796016 1.08364 0.520465 1.19778 0.317301 1.40094C0.114137 1.60411 0 1.87966 0 2.16697V18.417C0 18.7043 0.114137 18.9798 0.317301 19.183C0.520465 19.3862 0.796016 19.5003 1.08333 19.5003Z" fill="#0C6DA0"/>
</svg>
