<svg width="30" height="30" viewBox="0 0 30 30" fill="none" xmlns="http://www.w3.org/2000/svg">
<path fill-rule="evenodd" clip-rule="evenodd" d="M12.1341 3.01087C11.25 3.79461 11.25 5.22823 11.25 8.09549V21.9045C11.25 24.7717 11.25 26.2054 12.1341 26.9891C13.0181 27.7729 14.3694 27.5371 17.072 27.0657L19.983 26.5581C22.9761 26.036 24.4726 25.775 25.3614 24.6771C26.25 23.5794 26.25 21.9916 26.25 18.8161V11.1839C26.25 8.00838 26.25 6.42064 25.3614 5.32282C24.4726 4.22498 22.9761 3.96397 19.983 3.44192L17.072 2.93419C14.3694 2.46282 13.0181 2.22713 12.1341 3.01087ZM15 12.7107C15.5177 12.7107 15.9375 13.15 15.9375 13.6919V16.3081C15.9375 16.85 15.5177 17.2892 15 17.2892C14.4822 17.2892 14.0625 16.85 14.0625 16.3081V13.6919C14.0625 13.15 14.4822 12.7107 15 12.7107Z" fill="#0C6DA0"/>
<path d="M9.43396 5.625C6.86111 5.62875 5.51999 5.68532 4.66529 6.54002C3.75 7.45531 3.75 8.92845 3.75 11.8747V18.1248C3.75 21.071 3.75 22.5441 4.66529 23.4595C5.51999 24.3141 6.86111 24.3708 9.43396 24.3745C9.37481 23.5954 9.3749 22.6946 9.37501 21.721V8.27838C9.3749 7.30485 9.37481 6.40413 9.43396 5.625Z" fill="#0C6DA0"/>
</svg>
