<svg width="28" height="28" viewBox="0 0 28 28" fill="none" xmlns="http://www.w3.org/2000/svg">
<path fill-rule="evenodd" clip-rule="evenodd" d="M25.6666 9.67569C25.6666 13.7307 22.3659 17.0181 18.2941 17.0181C17.5511 17.0181 15.8595 16.8473 15.0365 16.1643L14.0077 17.1889C13.4029 17.7912 13.5663 17.9685 13.8353 18.2607C13.9475 18.3826 14.0783 18.5245 14.1792 18.7256C14.1792 18.7256 15.0365 19.9208 14.1792 21.1161C13.6649 21.7991 12.2246 22.7553 10.5787 21.1161L10.2358 21.4576C10.2358 21.4576 11.2645 22.6528 10.4073 23.8481C9.8929 24.5312 8.52129 25.2141 7.32111 24.0189L6.12095 25.2141C5.29797 26.0337 4.29214 25.5556 3.89211 25.2141L2.8634 24.1896C1.90325 23.2334 2.46334 22.1975 2.8634 21.7991L11.7789 12.92C11.7789 12.92 10.9217 11.554 10.9217 9.67569C10.9217 5.62063 14.2224 2.33334 18.2941 2.33334C22.3659 2.33334 25.6666 5.62063 25.6666 9.67569ZM18.2944 12.2371C19.7147 12.2371 20.8661 11.0904 20.8661 9.6758C20.8661 8.26124 19.7147 7.11451 18.2944 7.11451C16.874 7.11451 15.7226 8.26124 15.7226 9.6758C15.7226 11.0904 16.874 12.2371 18.2944 12.2371Z" fill="#0C6DA0"/>
</svg>
