<svg width="28" height="28" viewBox="0 0 28 28" fill="none" xmlns="http://www.w3.org/2000/svg">
<path d="M2.34012 5.29861C2.22241 3.6311 3.63444 2.33334 5.30267 2.33334H8.87365C9.72998 2.33334 10.5023 2.84931 10.8317 3.64141L12.3249 7.23271C12.6887 8.10755 12.4305 9.11802 11.692 9.71008L10.7612 10.4563C10.3458 10.7893 10.2045 11.3636 10.4508 11.8356C11.7166 14.2615 13.5874 16.3203 15.8624 17.8112C16.3426 18.1258 16.9769 18.0006 17.3352 17.5519L18.3051 16.3368C18.8959 15.5968 19.9043 15.3382 20.7773 15.7026L24.3612 17.199C25.1517 17.5291 25.6666 18.303 25.6666 19.1611V22.75C25.6666 24.4217 24.3236 25.7781 22.6596 25.6598C12.019 24.9027 3.09446 15.9853 2.34012 5.29861Z" fill="#0C6DA0"/>
</svg>
