<svg width="30" height="30" viewBox="0 0 30 30" fill="none" xmlns="http://www.w3.org/2000/svg">
<g clip-path="url(#clip0_166_1342)">
<path d="M15 2.5C12.3478 2.5 9.8043 3.55357 7.92893 5.42893C6.05357 7.3043 5 9.84784 5 12.5V14.875C4.62292 15.2036 4.31738 15.6061 4.10235 16.0577C3.88732 16.5092 3.76739 17.0002 3.75 17.5C3.77847 18.2248 4.02523 18.9241 4.45795 19.5063C4.89067 20.0884 5.48916 20.5263 6.175 20.7625C7.8 24.65 11.0625 27.5 15 27.5H18.75V25H15C12.175 25 9.6125 22.875 8.325 19.5125L8.0625 18.825L7.325 18.75C7.02465 18.7075 6.74999 18.5573 6.55221 18.3274C6.35442 18.0974 6.24701 17.8033 6.25 17.5C6.25132 17.2819 6.3097 17.0679 6.41934 16.8793C6.52899 16.6907 6.68608 16.5341 6.875 16.425L7.5 16.0625V13.75C7.5 13.4185 7.6317 13.1005 7.86612 12.8661C8.10054 12.6317 8.41848 12.5 8.75 12.5H21.25C21.5815 12.5 21.8995 12.6317 22.1339 12.8661C22.3683 13.1005 22.5 13.4185 22.5 13.75V20H17.3875C17.274 19.6818 17.0767 19.4001 16.8163 19.1848C16.556 18.9695 16.2423 18.8286 15.9084 18.7769C15.5746 18.7252 15.2329 18.7646 14.9196 18.8911C14.6064 19.0175 14.3331 19.2263 14.1286 19.4953C13.9242 19.7642 13.7963 20.0835 13.7583 20.4192C13.7204 20.7549 13.7738 21.0946 13.913 21.4024C14.0522 21.7102 14.272 21.9747 14.5492 22.1679C14.8263 22.3611 15.1505 22.4759 15.4875 22.5H25C25.663 22.5 26.2989 22.2366 26.7678 21.7678C27.2366 21.2989 27.5 20.663 27.5 20V17.5C27.5 16.837 27.2366 16.2011 26.7678 15.7322C26.2989 15.2634 25.663 15 25 15V12.5C25 9.84784 23.9464 7.3043 22.0711 5.42893C20.1957 3.55357 17.6522 2.5 15 2.5Z" fill="#0C6DA0"/>
</g>
<defs>
<clipPath id="clip0_166_1342">
<rect width="30" height="30" fill="white"/>
</clipPath>
</defs>
</svg>
