<svg width="40" height="40" viewBox="0 0 40 40" fill="none" xmlns="http://www.w3.org/2000/svg">
<path d="M34.5161 6.09082C34.5161 6.09082 37.7538 4.82832 37.484 7.8944C37.3941 9.15691 36.5847 13.5757 35.9551 18.3552L33.7966 32.5132C33.7966 32.5132 33.6167 34.5873 31.9978 34.9481C30.3789 35.3087 27.9507 33.6856 27.5009 33.3248C27.1412 33.0543 20.7557 28.9962 18.5072 27.0123C17.8776 26.4712 17.1581 25.3891 18.5971 24.1266L28.0406 15.1087C29.1198 14.0266 30.1991 11.5016 25.7022 14.5677L13.1109 23.1347C13.1109 23.1347 11.6719 24.0364 8.97383 23.2248L3.12785 21.4212C3.12785 21.4212 0.969342 20.0686 4.65679 18.7158C13.6506 14.4774 24.7129 10.1488 34.5161 6.09082Z" fill="#0C6DA0"/>
</svg>
