<svg width="40" height="40" viewBox="0 0 40 40" fill="none" xmlns="http://www.w3.org/2000/svg">
<path d="M35.9652 11.425C36.1985 10.65 35.9652 10.0817 34.8618 10.0817H31.2068C30.2768 10.0817 29.8518 10.5733 29.6185 11.1133C29.6185 11.1133 27.7602 15.645 25.1268 18.5833C24.2768 19.4383 23.8885 19.7083 23.4252 19.7083C23.1935 19.7083 22.8568 19.4383 22.8568 18.6633V11.425C22.8568 10.495 22.5885 10.0817 21.8135 10.0817H16.0702C15.4902 10.0817 15.1402 10.5117 15.1402 10.9217C15.1402 11.8017 16.4568 12.005 16.5918 14.485V19.865C16.5918 21.0433 16.3802 21.2583 15.9135 21.2583C14.6752 21.2583 11.6618 16.71 9.8735 11.5033C9.52516 10.4917 9.1735 10.0833 8.24016 10.0833H4.58683C3.54183 10.0833 3.3335 10.575 3.3335 11.115C3.3335 12.085 4.57183 16.885 9.10183 23.2333C12.1218 27.5683 16.3735 29.9183 20.2468 29.9183C22.5685 29.9183 22.8552 29.3967 22.8552 28.4967V25.22C22.8552 24.1767 23.0768 23.9667 23.8118 23.9667C24.3518 23.9667 25.2818 24.24 27.4502 26.3283C29.9268 28.805 30.3368 29.9167 31.7285 29.9167H35.3818C36.4252 29.9167 36.9468 29.395 36.6468 28.365C36.3185 27.34 35.1352 25.8483 33.5652 24.0833C32.7118 23.0767 31.4368 21.9933 31.0485 21.4517C30.5068 20.7533 30.6635 20.445 31.0485 19.825C31.0502 19.8267 35.5018 13.5567 35.9652 11.425Z" fill="#0C6DA0"/>
</svg>
